<svg xmlns="http://www.w3.org/2000/svg" xmlns:xlink="http://www.w3.org/1999/xlink" height="800" width="1200" version="1.0" viewBox="-18.62655 -30.5 161.4301 183"><defs><radialGradient xlink:href="#a" id="d" gradientUnits="userSpaceOnUse" gradientTransform="matrix(1.08446 0 0 1.11651 -21.621 6.225)" cx="256" cy="-46.416" fx="256" fy="-46.416" r="224"/><radialGradient xlink:href="#b" id="g" gradientUnits="userSpaceOnUse" gradientTransform="matrix(.29041 -.00079 .00067 .24464 50.335 156.099)" cx="46.511" cy="236.83" fx="46.511" fy="236.83" r="224"/><radialGradient cx="17.814" cy="24.149" fx="17.814" fy="24.149" gradientTransform="matrix(7.42904 0 0 7.1212 -87.913 43.752)" gradientUnits="userSpaceOnUse" id="h" r="9.125" xlink:href="#c"/><linearGradient id="b"><stop offset="0" stop-color="#cee2f8"/><stop offset=".552" stop-color="#98c1f1"/><stop offset="1" stop-color="#62a0ea"/></linearGradient><linearGradient id="a"><stop offset="0" stop-color="#62a0ea"/><stop offset=".552" stop-color="#3584e4"/><stop offset="1" stop-color="#1a5fb4"/></linearGradient><linearGradient id="c"><stop offset="0" stop-color="#fff"/><stop offset="1" stop-color="#e4e4e4"/></linearGradient><clipPath clipPathUnits="userSpaceOnUse" id="e"><circle r="60" cy="236" cx="64" style="marker:none" fill="#3584e4" stroke-width="4.286"/></clipPath><clipPath clipPathUnits="userSpaceOnUse" id="f"/></defs><path d="M39.702 5.22v1.999l4.01-.16.091-1.997z" fill="#2967b4" fill-rule="evenodd"/><path d="M4.302 56.118v1.999l4.011-.16.091-1.997z" fill="#164e93" fill-rule="evenodd"/><circle style="marker:none" cx="256" cy="44" r="224" fill="url(#d)" transform="translate(-4.395 50.214) scale(.26786)"/><path style="marker:none" clip-path="url(#e)" d="M38 176v4l10 8v8l8 8h4v-4l6-6v-4l4-4v-10zm-4 16H4s.509 40.442 0 40l20 18v-6l-4-4 6-6h4l4 4 .125-8.402L40 224h4v-4l4-4v-6l-4.272-3.875L34 206v8h-4l-4-4v-4l6-6h6v-4zm60 2l-6 6v4h6v-2.143h4v4.268L96 208H86v4h-4v6h-8v8h10v-4h8v2l4 4h2v-2l-2-2v-2h4l6 6h6v2l-2 2h-4l18 18v-56H96zm12 38H94l-2-2H78l-8 8v8l8 8h6l4 4v2l2 2v12l14 14h8v-30l4-4v-8l-10-10zm-2-12h4l6 6h-4zm-74 28l-4 4v10l8.125 8.143L34 296h8v-8l6-6v-4l6-6v-4l4-4v-8l-4-4h-8l-4-4z" color="#000" overflow="visible" opacity=".2" transform="translate(.177 -174)"/><path clip-path="url(#f)" d="M100 270h12v20h-12z" opacity=".1" fill="#fff" transform="translate(.177 -174)"/><path d="M106.177 56v2h4v-2z" fill="#144788" fill-rule="evenodd"/><path transform="translate(.177 -176)" d="M38 176v4l10 8v8l8 8h4v-4l6-6v-4l4-4v-10zm-4 16H4s.509 40.442 0 40l20 18v-6l-4-4 6-6h4l4 4 .125-8.402L40 224h4v-4l4-4v-6l-4.272-3.875L34 206v8h-4l-4-4v-4l6-6h6v-4zm60 2l-6 6v4h6v-2.143h4v4.268L96 208H86v4h-4v6h-8v8h10v-4h8v2l4 4h2v-2l-2-2v-2h4l6 6h6v2l-2 2h-4l18 18v-56H96zm12 38H94l-2-2H78l-8 8v8l8 8h6l4 4v2l2 2v12l14 14h8v-30l4-4v-8l-10-10zm-2-12h4l6 6h-4zm-74 28l-4 4v10l8.125 8.143L34 296h8v-8l6-6v-4l6-6v-4l4-4v-8l-4-4h-8l-4-4z" clip-path="url(#e)" style="marker:none" color="#000" overflow="visible" fill="url(#g)"/><path opacity=".1" fill="#fff" d="M78.177 78h6v2h-6zm-52-20h4v2h-4zm6-34h6v2h-6zm8 24h4v2h-4zm56-2h4v2h-4zm0 6h2v2h-2zm10 0h6v2h-6zm-12-26.143h4v2h-4zm-38 2.143h4v2h-4z"/><g transform="translate(-244.423 -75.975) scale(.33028)" color="#000" fill="none" stroke="#fff" stroke-linejoin="round"><circle style="marker:none" cx="883.604" cy="372.218" r="36.271" overflow="visible" opacity=".668" stroke-width="16.926"/><circle style="marker:none" cx="883.604" cy="372.218" r="68.972" overflow="visible" opacity=".668" stroke-width="11.693"/><circle style="marker:none" cx="883.604" cy="372.218" r="103.121" overflow="visible" opacity=".668" stroke-width="5.995"/></g><path style="marker:none" d="M47.767 51.314L10.103 87.87a60 60 0 006.293 10.336l5.38.174-1.914 3.975a60 60 0 009.852 8.72l3.3-7.428 15.065 16.092a60 60 0 00.387.098z" color="#000" overflow="visible" opacity=".3" fill="#12121c" fill-rule="evenodd"/><g color="#000" fill-rule="evenodd"><path d="M47.59 209.314L-.177 255.676l21.776.702-9.132 18.966c-2.81 8.43 9.835 11.59 11.942 5.269l8.43-18.967 15.453 16.508z" style="marker:none" overflow="visible" fill="url(#h)" transform="translate(.177 -162)"/><path style="marker:none" d="M47.767 47.314l-.246.239-31.159 73.781c3.148 1.277 7.121.585 8.223-2.72l8.43-18.968 15.455 16.508z" overflow="visible" fill="#e4e6e8"/></g></svg>